<svg xmlns="http://www.w3.org/2000/svg" viewBox="0 0 64 64" id="not-found"><rect width="56" height="40" x="4" y="16" fill="#f6f5f5"></rect><rect width="56" height="8" x="4" y="8" fill="#1f3c88"></rect><path fill="#070d59" d="M60,7H4A1,1,0,0,0,3,8V56a1,1,0,0,0,1,1H60a1,1,0,0,0,1-1V8A1,1,0,0,0,60,7ZM5,9H59v6H5ZM59,55H5V17H59Z"></path><circle cx="8" cy="12" r="1" fill="#ee6f57"></circle><circle cx="12" cy="12" r="1" fill="#ee6f57"></circle><circle cx="16" cy="12" r="1" fill="#ee6f57"></circle><path fill="#ee6f57" d="M37 26H27a1 1 0 0 0-1 1V45a1 1 0 0 0 1 1H37a1 1 0 0 0 1-1V27A1 1 0 0 0 37 26zM36 44H28V28h8zM51 28a1 1 0 0 0-1 1v8H42V27a1 1 0 0 0-2 0V38a1 1 0 0 0 1 1h9v6a1 1 0 0 0 2 0V29A1 1 0 0 0 51 28zM23 28a1 1 0 0 0-1 1v8H14V27a1 1 0 0 0-2 0V38a1 1 0 0 0 1 1h9v6a1 1 0 0 0 2 0V29A1 1 0 0 0 23 28z"></path></svg>